<svg width="1440" height="82" viewBox="0 0 1440 82" fill="none" xmlns="http://www.w3.org/2000/svg">
<path d="M0 21.1459C10 26.5409 40 21.2591 60 21.1459C80 21.2591 100 9.94091 120 16.9959C140 23.9 160 48.8 180 55.7041C200 62.7591 220 51.4409 240 44.65C260 37.8591 280 34.8409 300 28.05C320 21.2591 340 9.94091 360 12.8459C380 15.6 400 32.2 420 32.2C440 32.2 460 15.6 480 7.3C500 -1 520 -1 540 1.75409C560 4.65909 580 9.94091 600 21.1459C620 32.2 640 48.8 660 58.4959C680 68.0409 700 71.0591 720 66.7959C740 62.7591 760 51.4409 780 48.8C800 46.1591 820 51.4409 840 50.1959C860 48.8 880 40.5 900 40.5C920 40.5 940 48.8 960 47.4041C980 46.1591 1000 34.8409 1020 29.4459C1040 23.9 1060 23.9 1080 26.6541C1100 29.5591 1120 34.8409 1140 41.8959C1160 48.8 1180 57.1 1200 59.8541C1220 62.7591 1240 59.7409 1260 48.8C1280 37.8591 1300 18.2409 1320 10.0541C1340 1.64091 1360 4.65909 1380 8.69591C1400 12.9591 1420 18.2409 1430 21.1459L1440 23.9V82H1430C1420 82 1400 82 1380 82C1360 82 1340 82 1320 82C1300 82 1280 82 1260 82C1240 82 1220 82 1200 82C1180 82 1160 82 1140 82C1120 82 1100 82 1080 82C1060 82 1040 82 1020 82C1000 82 980 82 960 82C940 82 920 82 900 82C880 82 860 82 840 82C820 82 800 82 780 82C760 82 740 82 720 82C700 82 680 82 660 82C640 82 620 82 600 82C580 82 560 82 540 82C520 82 500 82 480 82C460 82 440 82 420 82C400 82 380 82 360 82C340 82 320 82 300 82C280 82 260 82 240 82C220 82 200 82 180 82C160 82 140 82 120 82C100 82 80 82 60 82C40 82 20 82 10 82H0V21.1459Z" fill="url(#paint0_linear_1_3)"/>
<defs>
<linearGradient id="paint0_linear_1_3" x1="0" y1="82" x2="0" y2="-0.999998" gradientUnits="userSpaceOnUse">
<stop/>
<stop offset="1" stop-color="#FFB30B"/>
</linearGradient>
</defs>
</svg>
